<?xml version="1.0" encoding="UTF-8" standalone="no"?>
<svg
   width="1023"
   height="1023"
   version="1.1"
   id="svg88"
   sodipodi:docname="icon.svg"
   inkscape:version="1.1 (c68e22c387, 2021-05-23)"
   xmlns:inkscape="http://www.inkscape.org/namespaces/inkscape"
   xmlns:sodipodi="http://sodipodi.sourceforge.net/DTD/sodipodi-0.dtd"
   xmlns="http://www.w3.org/2000/svg"
   xmlns:svg="http://www.w3.org/2000/svg">
  <defs
     id="defs92" />
  <sodipodi:namedview
     id="namedview90"
     pagecolor="#505050"
     bordercolor="#eeeeee"
     borderopacity="1"
     inkscape:pageshadow="0"
     inkscape:pageopacity="0"
     inkscape:pagecheckerboard="0"
     showgrid="false"
     inkscape:zoom="0.52048036"
     inkscape:cx="235.35951"
     inkscape:cy="467.83706"
     inkscape:window-width="2560"
     inkscape:window-height="1369"
     inkscape:window-x="1912"
     inkscape:window-y="451"
     inkscape:window-maximized="1"
     inkscape:current-layer="svg88" />
  <path
     fill="#051130"
     d="M0 0L1024 0L1024 1024L0 1024L0 0Z"
     id="path2" />
  <path
     fill="#2B8542"
     d="M368.322 357.851C369.452 361.877 367.185 371.776 366.606 376.308Q365.344 386.492 364.817 396.74Q364.291 406.988 364.503 417.247Q364.715 427.507 365.664 437.724Q366.613 447.942 368.295 458.065C357.952 466.942 348.102 476.425 337.917 485.487L262.552 552.765C256.494 558.213 250.145 563.332 244.071 568.764C237.143 574.96 230.476 581.448 223.551 587.651C216.716 593.774 209.588 599.567 202.751 605.689C191.622 615.655 180.767 625.967 169.858 636.173C169.077 636.818 168.567 637.567 167.529 637.54C192.143 605.198 214.735 571.207 238.191 538.016L313.304 433.7C331.39 408.306 349.118 382.408 368.322 357.851Z"
     id="path4" />
  <path
     fill="#2b8542"
     d="m 653.24287,686.8589 c -3.8419,-1.55836 -13.78109,-0.27403 -18.28666,-0.15132 q -10.12079,0.23614 -20.23261,-0.2797 -10.11174,-0.51677 -20.16216,-1.78302 -10.05142,-1.26634 -19.98863,-3.27557 -9.93821,-2.00934 -19.71154,-4.75223 c -9.72478,9.5781 -19.9963,18.59419 -29.88726,27.9931 l -73.40789,69.5255 c -5.93999,5.58452 -11.58544,11.4978 -17.51129,17.10018 -6.7593,6.39001 -13.77974,12.48546 -20.54561,18.87175 -6.67855,6.3032 -13.06173,12.93733 -19.73949,19.24266 -10.87061,10.26349 -22.05415,20.21371 -33.13887,30.22953 -0.70947,0.72584 -1.49458,1.16622 -1.56948,2.22151 34.15415,-21.64426 69.72956,-41.06928 104.60402,-61.45233 l 109.74308,-65.47455 c 26.6957,-15.73691 53.85118,-31.05915 79.83441,-48.01547 z"
     id="path4-2"
     style="stroke-width:1.00271" />
  <path
     fill="#2B8542"
     d="M378.429 503.445C380.474 506.414 381.597 512.729 382.821 516.258C384.223 520.303 385.867 524.235 387.57 528.159C396.42 548.546 404.613 561.799 417.336 579.869C399.226 598.911 379.955 616.673 360.986 634.841L296.002 697.853L82.3129 905.911C75.3068 912.591 68.3579 919.451 60.757 925.457C63.8339 920.942 67.3983 916.679 70.6541 912.281L96.6101 877.749L155.436 799.851L310.402 593.621C333.011 563.502 356.159 533.815 378.429 503.445Z"
     id="path8" />
  <path
     fill="#C8AD50"
     d="M463.27 232.488C463.323 234.539 457.965 241.832 456.51 244.282C421.927 302.509 410.857 378.221 427.61 443.894C438.998 488.537 461.418 526.319 493.315 559.264C510.1 576.601 528.242 591.479 549.038 603.778Q551.725 605.377 554.446 606.918Q557.166 608.458 559.92 609.94Q562.673 611.422 565.457 612.844Q568.242 614.266 571.056 615.628Q573.871 616.99 576.714 618.291Q579.557 619.592 582.427 620.832Q585.298 622.071 588.194 623.249Q591.091 624.426 594.012 625.541Q596.933 626.656 599.878 627.708Q602.822 628.759 605.789 629.747Q608.755 630.735 611.742 631.659Q614.729 632.583 617.735 633.443Q620.742 634.302 623.766 635.097Q626.79 635.891 629.83 636.62Q632.871 637.35 635.926 638.013Q638.982 638.677 642.051 639.274Q645.12 639.872 648.201 640.404Q651.282 640.935 654.374 641.4Q657.466 641.865 660.567 642.263Q663.668 642.662 666.777 642.993Q669.886 643.325 673.002 643.589Q676.117 643.854 679.237 644.051Q682.358 644.248 685.482 644.379Q688.606 644.509 691.732 644.572Q694.858 644.634 697.984 644.63Q701.111 644.626 704.237 644.554Q707.363 644.482 710.487 644.343Q713.61 644.204 716.73 643.998Q719.85 643.792 722.964 643.518Q726.079 643.245 729.187 642.904Q732.295 642.564 735.395 642.157Q738.495 641.75 741.586 641.276C758.393 638.854 774.699 634.723 791.121 630.506C778.242 637.759 765.296 644.49 751.871 650.679C745.549 653.282 738.86 655.166 732.322 657.155C708.908 664.278 685.817 668.882 661.338 670.221Q658.611 670.365 655.882 670.454Q653.152 670.542 650.422 670.574Q647.691 670.607 644.96 670.583Q642.23 670.559 639.5 670.479Q636.771 670.399 634.043 670.263Q631.316 670.126 628.592 669.934Q625.868 669.742 623.148 669.494Q620.429 669.246 617.715 668.941Q615.001 668.637 612.294 668.278Q609.587 667.918 606.888 667.503Q604.189 667.087 601.499 666.616Q598.809 666.146 596.129 665.62Q593.45 665.094 590.781 664.513Q588.113 663.932 585.457 663.296Q582.802 662.66 580.159 661.97Q577.517 661.28 574.89 660.535Q572.263 659.791 569.651 658.993Q567.039 658.195 564.445 657.343Q561.85 656.491 559.274 655.586Q556.697 654.681 554.14 653.724Q551.583 652.766 549.045 651.756Q546.508 650.746 543.993 649.684Q541.477 648.622 538.983 647.508Q536.49 646.394 534.02 645.23Q531.55 644.065 529.104 642.85Q526.659 641.635 524.239 640.37Q521.819 639.105 519.425 637.79Q517.032 636.476 514.666 635.112Q512.3 633.748 509.962 632.336Q507.625 630.924 505.317 629.465Q503.009 628.005 500.731 626.498Q498.454 624.991 496.208 623.438C487.141 617.255 478.244 610.934 470.081 603.577Q467.808 601.551 465.587 599.469Q463.366 597.386 461.197 595.249Q459.028 593.113 456.913 590.922Q454.798 588.732 452.738 586.49Q450.678 584.248 448.675 581.955Q446.671 579.662 444.726 577.32Q442.78 574.979 440.893 572.589Q439.006 570.199 437.18 567.764Q435.353 565.328 433.587 562.847Q431.822 560.367 430.118 557.843Q428.415 555.319 426.775 552.754Q425.135 550.189 423.56 547.583Q421.984 544.978 420.474 542.334Q418.964 539.691 417.52 537.01Q416.076 534.33 414.699 531.614Q413.322 528.898 412.013 526.149Q410.705 523.4 409.465 520.619Q408.225 517.839 407.054 515.028Q405.884 512.217 404.784 509.378Q403.684 506.539 402.655 503.673Q401.626 500.808 400.668 497.918Q399.711 495.027 398.826 492.114Q397.941 489.201 397.128 486.267Q396.316 483.332 395.577 480.379Q394.838 477.425 394.172 474.454Q393.507 471.483 392.916 468.496Q392.325 465.509 391.808 462.509Q391.292 459.508 390.85 456.496Q390.408 453.483 390.041 450.461Q389.674 447.438 389.383 444.407Q389.092 441.377 388.876 438.34Q388.66 435.302 388.52 432.261C384.834 355.793 412.084 288.767 463.27 232.488Z"
     id="path10" />
  <path
     fill="#F9F0A4"
     d="M690.898 122.789L691.799 122.714C755.89 117.976 820.753 142.047 869.247 183.373Q871.511 185.339 873.728 187.359Q875.945 189.379 878.112 191.451Q880.28 193.523 882.397 195.647Q884.514 197.771 886.579 199.945Q888.645 202.119 890.657 204.342Q892.67 206.565 894.629 208.836Q896.588 211.106 898.492 213.423Q900.395 215.74 902.243 218.102Q904.09 220.464 905.881 222.87Q907.671 225.276 909.403 227.724Q911.135 230.172 912.808 232.66Q914.481 235.149 916.094 237.678Q917.706 240.206 919.258 242.772Q920.809 245.338 922.299 247.941Q923.788 250.544 925.215 253.181Q926.641 255.819 928.004 258.49Q929.367 261.162 930.665 263.865Q931.964 266.568 933.197 269.301Q934.43 272.035 935.597 274.797Q936.764 277.56 937.865 280.349Q938.965 283.139 939.998 285.954Q941.031 288.769 941.997 291.608Q942.962 294.447 943.859 297.309Q944.756 300.17 945.584 303.053Q946.412 305.935 947.171 308.836Q947.929 311.737 948.618 314.656Q949.307 317.575 949.925 320.509Q950.544 323.443 951.091 326.392Q951.639 329.34 952.116 332.301Q952.593 335.261 952.999 338.232Q953.405 341.204 953.739 344.184Q954.073 347.164 954.336 350.151Q954.589 353.153 954.767 356.16Q954.945 359.168 955.049 362.178Q955.152 365.189 955.181 368.202Q955.209 371.214 955.163 374.226Q955.117 377.238 954.996 380.248Q954.875 383.259 954.679 386.265Q954.484 389.271 954.213 392.271Q953.943 395.272 953.599 398.265Q953.254 401.257 952.835 404.241Q952.416 407.224 951.923 410.196Q951.43 413.168 950.864 416.127Q950.297 419.086 949.658 422.029Q949.018 424.973 948.305 427.9Q947.592 430.827 946.807 433.736Q946.022 436.644 945.165 439.532Q944.308 442.42 943.379 445.286Q942.451 448.152 941.451 450.994Q940.452 453.836 939.382 456.652Q938.313 459.469 937.173 462.257Q936.034 465.046 934.826 467.806Q933.618 470.566 932.341 473.294Q931.065 476.023 929.721 478.719Q928.377 481.416 926.967 484.078Q925.557 486.74 924.081 489.366Q922.605 491.992 921.064 494.581Q919.524 497.17 917.919 499.72Q916.315 502.269 914.647 504.779Q912.98 507.288 911.251 509.755Q909.522 512.221 907.732 514.645Q905.942 517.068 904.093 519.446Q902.243 521.824 900.335 524.155Q898.427 526.487 896.462 528.77Q894.947 530.52 893.399 532.24Q891.851 533.96 890.271 535.651Q888.69 537.341 887.077 539.001Q885.464 540.661 883.82 542.289Q882.176 543.918 880.501 545.515Q878.826 547.112 877.121 548.676Q875.415 550.241 873.68 551.772Q871.945 553.304 870.182 554.802Q868.418 556.3 866.625 557.764Q864.833 559.228 863.013 560.658Q861.193 562.087 859.346 563.482Q857.499 564.876 855.626 566.235Q853.752 567.594 851.853 568.916Q849.954 570.239 848.03 571.525Q846.106 572.811 844.158 574.06Q842.21 575.309 840.238 576.521Q838.266 577.732 836.272 578.906Q834.277 580.079 832.26 581.215Q830.243 582.35 828.205 583.446Q826.167 584.542 824.109 585.6Q822.05 586.657 819.971 587.674Q817.893 588.692 815.795 589.669Q813.698 590.647 811.582 591.584Q809.466 592.522 807.332 593.418Q805.199 594.315 803.048 595.17Q800.898 596.026 798.732 596.84Q796.565 597.655 794.384 598.427Q792.203 599.2 790.007 599.931Q787.811 600.661 785.601 601.35Q783.392 602.039 781.17 602.685Q778.948 603.331 776.713 603.935Q774.479 604.538 772.234 605.099C756.339 609.046 739.939 611.179 723.633 612.441C708.746 612.803 693.949 612.733 679.139 611.027Q674.62 610.483 670.124 609.778Q665.628 609.073 661.159 608.208Q656.691 607.343 652.256 606.319Q647.822 605.296 643.426 604.115Q639.031 602.934 634.68 601.597Q630.33 600.261 626.029 598.77Q621.729 597.279 617.485 595.636Q613.241 593.993 609.058 592.199Q604.875 590.406 600.758 588.465Q596.641 586.523 592.597 584.437Q588.552 582.35 584.584 580.12Q580.616 577.891 576.731 575.521Q572.845 573.152 569.046 570.646Q565.247 568.139 561.54 565.499Q557.832 562.859 554.222 560.088Q550.611 557.318 547.101 554.42C540.254 548.714 534.051 542.342 527.878 535.927C490.036 496.601 465.609 446.97 460.74 392.3Q460.456 389.204 460.25 386.101Q460.043 382.999 459.915 379.893Q459.786 376.786 459.734 373.677Q459.683 370.569 459.709 367.459Q459.736 364.35 459.84 361.243Q459.943 358.135 460.125 355.032Q460.306 351.928 460.565 348.829Q460.824 345.731 461.16 342.64Q461.496 339.549 461.909 336.467Q462.322 333.386 462.812 330.315Q463.302 327.245 463.868 324.188Q464.435 321.131 465.077 318.089Q465.72 315.046 466.438 312.021Q467.156 308.996 467.95 305.99Q468.743 302.984 469.611 299.998Q470.48 297.013 471.422 294.05Q472.365 291.087 473.381 288.149Q474.397 285.21 475.486 282.298Q476.575 279.386 477.737 276.502Q478.898 273.618 480.132 270.763Q481.365 267.909 482.669 265.087Q483.973 262.264 485.347 259.475Q486.721 256.686 488.164 253.932Q489.607 251.178 491.119 248.461Q492.63 245.744 494.209 243.065Q495.788 240.387 497.433 237.749Q499.078 235.11 500.789 232.514Q502.499 229.918 504.274 227.365Q506.049 224.812 507.887 222.304Q509.725 219.796 511.625 217.335Q513.525 214.874 515.486 212.461Q517.447 210.048 519.467 207.685C550.759 170.655 595.511 142.651 642.378 130.477C658.22 126.361 674.615 124.203 690.898 122.789Z"
     id="path12" />
  <path
     fill="#051130"
     d="M555.842 186.388L556.516 186.626L556.663 187.618C553.211 193.288 546.926 197.468 540.918 200.045L540.358 199.414C542.303 195.607 552.051 188.914 555.842 186.388Z"
     id="path14" />
  <path
     fill="#051130"
     d="M815.235 203.135C816.03 203.156 816.814 203.181 817.606 203.255C823.818 203.831 828.746 207.378 832.634 212.048L832.434 212.382L830.962 211.525C823.262 207.269 819.6 208.394 811.642 206.725L811.55 205.882C812.746 204.406 813.393 203.689 815.235 203.135Z"
     id="path16" />
  <path
     fill="#051130"
     d="M929.919 469.967L930.355 470.554C929.505 477.025 917.777 485.761 913.578 491.377L913.25 490.94C914.951 483.474 923.687 474.167 929.919 469.967Z"
     id="path18" />
  <path
     fill="#051130"
     d="M922.864 422.317L923.407 422.721C923.807 423.668 923.904 423.929 923.555 424.969C922.804 427.207 920.968 429.655 919.755 431.726C916.791 436.787 914.507 441.618 913.08 447.312C912.952 447.489 913.058 447.377 912.637 447.448C912.417 445.745 912.477 444.176 912.638 442.473C913.331 435.124 917.166 426.995 922.864 422.317Z"
     id="path20" />
  <path
     fill="#051130"
     d="M888.53 385.582C889.779 385.469 890.893 385.543 892.137 385.65C891.891 386.292 889.018 387.556 888.258 387.978C885.449 389.54 882.829 391.295 880.495 393.516C875.646 398.128 872.83 403.793 870.255 409.876C869.791 411.126 869.312 411.996 868.552 413.067C869.56 407.136 870.792 401.207 873.941 395.991C877.478 390.132 882.014 387.158 888.53 385.582Z"
     id="path22" />
  <path
     fill="#051130"
     d="M740.812 177.153C743.981 176.865 747.321 176.944 750.446 177.583C756.017 178.723 759.199 181.68 762.231 186.225L754.147 183.349C746.583 181.387 739.494 181.659 731.879 183.146C734.382 179.367 736.473 178.27 740.812 177.153Z"
     id="path24" />
  <path
     fill="#051130"
     d="M628.813 167.667C630.707 167.388 632.798 167.456 634.721 167.359C632.638 170.135 630.681 172.892 628.91 175.879C623.278 176.447 617.775 177.003 612.224 178.175L605.844 180.084C611.94 172.099 619.106 169.069 628.813 167.667Z"
     id="path26" />
  <path
     fill="#051130"
     d="M789.219 290.103C795.318 289.575 800.96 289.945 806.618 292.407C797.087 292.607 787.948 294.699 780.313 300.617C776.935 303.56 774.573 307.448 772.127 311.151C772.657 306.584 773.446 301.946 775.922 297.97C779.074 292.912 783.728 291.339 789.219 290.103Z"
     id="path28" />
  <path
     fill="#051130"
     d="M848.094 336.707C851.667 336.796 854.683 337.454 858.04 338.58C854.39 339.134 850.611 339.592 847.073 340.664C837.421 343.587 831.136 349.407 826.481 358.184C825.528 360.354 824.676 362.559 823.3 364.503C822.926 363.539 822.701 362.551 822.597 361.523C822.083 356.438 825.302 349.035 828.598 345.173C833.718 339.172 840.558 337.319 848.094 336.707Z"
     id="path30" />
  <path
     fill="#051130"
     d="M766.26 231.637C766.631 231.61 767.003 231.577 767.376 231.576C777.554 231.552 784.494 236.643 791.272 243.536C785.544 241.035 780.061 239.21 773.918 238.017C763.709 237.459 757.006 239.499 748.58 245.29C749.431 243.315 750.316 241.306 751.59 239.562C755.341 234.427 760.211 232.601 766.26 231.637Z"
     id="path32" />
  <path
     fill="#051130"
     d="M870.248 437.368C873.103 441.626 876 443.365 880.73 444.989C867.155 450.121 855.963 459.035 849.438 472.136L849.044 473.089L848.593 473.095C847.329 467.171 845.257 465.506 840.538 461.991C854.674 457.326 863.367 450.696 870.248 437.368Z"
     id="path34" />
  <path
     fill="#051130"
     d="M696.534 213.203C698.977 213.108 701.688 213.282 704.048 213.92C709.816 215.481 712.456 219.882 715.308 224.687C707.828 223.727 700.906 223.274 693.38 224.057C687.954 224.019 682.171 226.136 677.136 227.916C678.179 224.829 679.202 221.987 681.375 219.465C685.334 214.87 690.799 213.723 696.534 213.203Z"
     id="path36" />
  <path
     fill="#051130"
     d="M662.761 185.206C664.894 185.086 667.085 185.233 669.224 185.274C666.25 189.978 664.103 194.058 662.589 199.432C655.396 199.414 648.55 199.726 641.425 200.894L634.187 202.23C635.624 199.592 637.047 196.995 639.005 194.695C645.344 187.247 653.61 185.927 662.761 185.206Z"
     id="path38" />
  <path
     fill="#051130"
     d="M572.797 203.209L577.743 203.273C574.643 210.372 572.262 217.229 570.773 224.846C564.277 222.937 558.779 223.086 552.442 225.339L547.435 227.924C550.033 221.283 552.493 214.777 554.021 207.787C560.176 205.495 566.196 203.592 572.797 203.209Z"
     id="path40" />
  <path
     fill="#051130"
     d="M606.373 225.722C607.572 225.616 608.603 225.658 609.797 225.805C610.565 228.766 609.505 232.468 609.519 235.554C609.545 241.083 610.634 246.621 612.062 251.938C602.168 248.328 593.041 248.536 583.124 251.909L577.326 254.664C579.521 247.209 580.963 239.649 578.369 232.08C587.724 228.84 596.407 226.241 606.373 225.722Z"
     id="path42" />
  <path
     fill="#051130"
     d="M500.005 253.297C504.209 247.005 508.348 237.174 513.756 232.194C512.344 235.143 509.975 240.441 511.503 243.724C512.183 245.187 513.289 246.009 514.82 246.404C520.91 247.971 528.428 243.294 533.502 240.424C530.803 245.31 528.361 250.083 527.231 255.595C526.18 260.724 526.078 266.674 529.17 271.148C531.581 274.636 535.455 276.449 539.565 277.044C550.421 278.617 559.176 273.309 567.519 267.142C565.52 275.255 565.777 283.772 570.193 291.106C574.125 297.635 581.075 302.175 588.416 303.958C596.545 305.933 605.622 304.541 612.717 300.082Q613.338 299.684 613.939 299.256Q614.54 298.829 615.12 298.372Q615.699 297.916 616.256 297.432Q616.813 296.948 617.345 296.438Q617.878 295.927 618.385 295.391Q618.892 294.855 619.372 294.295Q619.852 293.735 620.305 293.153Q620.757 292.57 621.181 291.966Q621.604 291.362 621.998 290.739Q622.392 290.115 622.755 289.473Q623.118 288.83 623.449 288.171Q623.78 287.512 624.079 286.838Q624.378 286.163 624.643 285.475Q624.909 284.787 625.141 284.086Q625.372 283.386 625.57 282.675Q625.767 281.965 625.93 281.245C627.908 272.397 625.647 265.803 620.944 258.325C633.327 254.113 646.231 251.999 659.298 252.607C660.588 261.271 662.669 267.308 667.74 274.498C657.869 272.78 646.63 273.85 637.924 279.111C630.826 283.4 625.416 290.617 623.611 298.762C622.01 305.994 623.672 313.38 627.647 319.556C632.831 327.61 641.021 332.56 650.283 334.541Q651.303 334.753 652.333 334.914Q653.362 335.075 654.398 335.185Q655.434 335.295 656.475 335.354Q657.515 335.412 658.557 335.42Q659.599 335.427 660.64 335.382Q661.681 335.338 662.718 335.242Q663.756 335.146 664.788 334.999Q665.819 334.852 666.842 334.655Q667.865 334.457 668.877 334.209Q669.889 333.96 670.887 333.663Q671.886 333.365 672.868 333.018Q673.851 332.671 674.815 332.276Q675.779 331.881 676.723 331.438Q677.666 330.996 678.587 330.508Q679.507 330.019 680.402 329.486Q681.297 328.953 682.165 328.376C689.1 323.751 694.453 316.442 695.988 308.163C697.607 299.424 694.281 292.528 689.421 285.636C699.735 282.185 708.228 276.809 719.598 277.231C730.965 277.652 738.795 284.207 746.193 292.116C739.29 290.979 732.124 290.67 725.212 291.894C716.139 293.501 707.159 297.832 701.889 305.664C697.744 311.823 695.899 319.598 697.446 326.928C699.793 338.049 708.347 344.344 717.299 350.137C713.365 349.764 709.437 349.433 705.486 349.738C695.354 350.52 685.056 354.804 678.422 362.698C673.827 368.165 671.494 375.08 672.249 382.219C673.1 390.265 677.788 397.378 684.118 402.237C693.479 409.424 706.081 411.412 717.571 409.874C727.3 408.572 736.138 403.886 742.071 395.961C746.54 389.992 747.932 382.506 746.848 375.222C745.598 366.821 740.959 360.662 734.253 355.783C739.051 355.627 743.45 355.305 748.051 353.833C758.001 350.65 764.738 344.742 769.442 335.469C776.985 346.661 790.555 348.568 802.448 352.607C792.723 352.1 784.687 350.366 775.055 353.308C765.68 356.171 757.741 362.308 753.167 371.065C749.839 377.437 748.726 385.831 751.073 392.714C753.456 399.699 758.951 404.75 765.533 407.763C776.693 412.872 791.247 414.91 802.948 410.524C813.677 406.501 819.603 399.379 824.286 389.235C828.573 395.859 832.91 398.754 840.317 401.144C835.6 402.074 830.848 403.236 826.406 405.1C815.21 409.798 807.292 418.037 802.741 429.181C800.796 423.404 797.677 419.095 792.19 416.163C782.884 411.19 765.21 411.371 755.198 414.47C745.676 417.417 736.562 423.258 731.97 432.377C728.988 438.3 727.999 445.753 730.265 452.081C732.353 457.911 737.038 462.06 742.528 464.656C754.126 470.14 769.381 468.528 781.102 464.256C791.503 460.465 798.028 454.321 802.703 444.326C803.424 446.084 804.147 447.836 805.168 449.446C809.703 456.594 817.059 459.305 824.853 461.194C821.43 461.972 817.952 462.42 814.507 463.084C802.876 465.328 789.53 471.39 782.78 481.575C779.772 486.113 777.884 491.802 779.102 497.247C780.261 502.433 783.922 506.932 788.419 509.651C795.442 513.898 804.137 513.826 811.895 512.016C825.04 508.948 837.847 502.235 845.132 490.631C846.01 493.884 846.988 497.163 849.469 499.585C852.816 502.852 857.354 502.989 861.73 503.055C875.582 500.654 889.001 492.686 897.255 481.108C898.939 478.745 902.751 469.529 903.838 468.685C904.704 473.562 901.915 481.808 900.197 486.43C900.114 486.653 900.045 486.882 899.959 487.104C898.409 491.136 890.61 497.201 887.303 500.551C882.336 505.585 878.444 511.271 873.992 516.707C875.076 513.635 876.482 509.702 874.631 506.636C873.665 505.036 871.868 504.296 870.103 504C867.619 503.584 864.814 504.279 862.386 504.831Q855.117 507.072 848.082 509.964C835.517 515.191 818.397 524.037 813.112 537.598C812.31 539.654 811.851 542.089 812.877 544.153C813.955 546.319 816.162 547.681 818.397 548.414C832.33 552.989 855.775 538.284 865.121 528.737C866.567 527.26 871.444 519.898 871.989 519.636C872.082 521.451 871.831 523.913 872.478 525.597C872.9 526.695 873.736 527.504 874.868 527.844C879.429 529.216 885.58 525.154 889.5 523.028C880.728 530.969 835.665 560.309 833.99 565.745C833.424 567.579 834.655 568.498 835.299 570.139C819.93 577.606 804.131 585.388 787.919 590.83C741.013 606.574 686.712 607.181 639.5 592.368C574.007 571.818 526.029 532.389 494.348 471.364C465.568 415.926 464.515 349.436 483.154 290.629C484.14 291.909 483.552 293.004 485.267 293.878C486.487 294.499 487.759 294.283 488.957 293.776C495.379 291.054 500.201 279.204 502.372 273.061C503.948 268.6 506.837 260.885 504.488 256.371C503.454 254.383 502.011 253.976 500.005 253.297Z"
     id="path44" />
  <path
     fill="#F9F0A4"
     d="M498.381 453.957C503.242 455.793 506.607 460.344 509.286 464.605C512.614 469.896 519.279 480.239 517.794 486.787C509.14 481.767 500.906 472.632 498.192 462.822C497.377 459.873 496.827 456.712 498.381 453.957Z"
     id="path46" />
  <path
     fill="#F9F0A4"
     d="M556.47 531.836C559.001 531.671 561.266 532.122 563.656 532.959C570.426 535.331 586.675 543.028 589.589 549.853C590.304 551.527 590.04 552.57 589.446 554.164C588.672 554.158 587.903 554.162 587.131 554.082C578.642 553.213 563.035 543.734 557.892 536.985C556.463 535.11 556.122 534.184 556.47 531.836Z"
     id="path48" />
  <path
     fill="#F9F0A4"
     d="M492.319 399.845C493.455 400.207 494.627 400.57 495.529 401.382C501.85 407.071 506.486 420.717 506.74 429.045C506.832 432.096 506.54 433.993 504.42 436.222C503.21 435.452 502.101 434.637 501.084 433.618C494.77 427.29 489.53 414.995 489.707 406.047C489.762 403.213 490.25 401.779 492.319 399.845Z"
     id="path50" />
  <path
     fill="#F9F0A4"
     d="M626.999 558.098C636.478 557.804 653.574 561.859 662.161 565.895C663.979 566.75 664.976 567.479 665.625 569.4C664.914 570.985 664.34 571.219 662.946 572.198Q661.916 572.477 660.87 572.691C651.369 574.587 635.711 570.437 627.771 565.066C626.125 563.953 625.299 563.068 624.897 561.109C625.39 559.53 625.675 559.091 626.999 558.098Z"
     id="path52" />
  <path
     fill="#F9F0A4"
     d="M546.642 489.517C548.002 489.493 549.271 489.607 550.618 489.811C560.097 491.251 569.584 498.198 574.999 505.936C576.413 507.958 577.48 510.534 576.848 513.03C576.476 514.499 575.367 515.184 574.203 515.984C573.058 516.029 571.916 516.067 570.776 515.923C561.838 514.795 551.5 506.233 546.394 499.157C545.024 497.259 543.578 494.649 544.248 492.225C544.651 490.763 545.446 490.246 546.642 489.517Z"
     id="path54" />
  <path
     fill="#F9F0A4"
     d="M823.329 556.184C824.557 556.059 825.844 555.862 827.078 555.965C828.247 556.063 828.332 556.142 829.07 556.976C828.991 558.302 828.228 559.241 827.348 560.182C817.287 570.948 791.035 579.143 776.531 579.997C774.381 579.743 771.839 579.605 770.322 577.874C770.32 576.707 770.293 576.445 771.071 575.5C777.122 568.15 813.069 557.338 823.329 556.184Z"
     id="path56" />
  <path
     fill="#F9F0A4"
     d="M739.531 566.698C744.235 566.27 749.613 565.86 754.24 566.934C756.61 567.485 758.416 568.466 759.733 570.533C759.812 571.843 759.746 572.425 758.871 573.463C753.529 579.803 737.479 582.471 729.818 583.444C725.035 583.553 720.104 583.628 715.43 582.45C712.878 581.806 710.497 580.933 709.073 578.61C709.05 577.269 709.003 576.913 709.882 575.803C714.28 570.244 732.821 567.503 739.531 566.698Z"
     id="path58" />
  <path
     fill="#F9F0A4"
     d="M613.327 512.641C617.728 512.647 622.213 513.343 626.482 514.381C632.793 515.915 646.277 520.942 649.28 527.215Q649.366 527.393 649.432 527.578Q649.499 527.764 649.545 527.956Q649.592 528.148 649.617 528.343Q649.643 528.539 649.648 528.736Q649.653 528.933 649.638 529.13Q649.622 529.327 649.585 529.521Q649.548 529.714 649.492 529.903Q649.435 530.092 649.358 530.274C648.379 532.641 646.223 533.766 644.021 534.772C637.839 535.64 631.735 534.837 625.871 532.758C620.111 530.716 609.31 525.412 607.029 519.335C606.62 518.246 606.417 517.126 607.017 516.062C608.309 513.772 610.952 513.077 613.327 512.641Z"
     id="path60" />
  <path
     fill="#F9F0A4"
     d="M536.446 430.52C537.371 430.539 538.305 430.569 539.222 430.704C547.211 431.887 555.664 439.235 560.158 445.645C562.556 449.066 564.823 453.508 563.853 457.804C563.183 460.77 561.48 462.323 559.013 463.904C556.388 464.121 553.943 464.194 551.392 463.415C543.878 461.117 537.465 454.795 533.989 447.863C532.096 444.086 530.383 439.339 531.909 435.167C532.796 432.74 534.202 431.655 536.446 430.52Z"
     id="path62" />
  <path
     fill="#F9F0A4"
     d="M499.194 342.901C500.018 342.885 500.777 342.889 501.59 343.055C505.028 343.755 507.64 346.065 509.514 348.953C513.962 355.812 515.372 366.628 513.716 374.556C512.621 379.798 510.573 383.364 506.113 386.314C505.336 386.586 504.571 386.893 503.726 386.804C501.287 386.546 499.047 384.103 497.748 382.217C492.686 374.869 490.43 361.958 492.246 353.277C493.254 348.456 495.074 345.545 499.194 342.901Z"
     id="path64" />
  <path
     fill="#F9F0A4"
     d="M697.542 527.713C705.201 527.169 715.164 528.316 721.629 532.784C723.76 534.257 725.745 536.391 726.058 539.069C726.305 541.183 725.497 543.097 724.142 544.689C719.229 550.461 709.753 551.636 702.713 552.411C694.684 552.665 684.299 551.886 677.583 546.955C675.533 545.45 673.593 543.226 673.28 540.603C673.021 538.425 673.843 536.466 675.277 534.858C680.428 529.086 690.326 528.256 697.542 527.713Z"
     id="path66" />
  <path
     fill="#F9F0A4"
     d="M595.434 453.594C602.92 453.142 610.252 454.626 617.088 457.679C624.408 460.949 632.534 466.815 635.273 474.67C636.149 477.185 636.308 479.845 635.09 482.273C633.08 486.28 628.991 488.266 624.927 489.522C614.723 490.909 604.657 488.102 596.243 482.266C589.534 477.613 585.403 472.427 583.893 464.263C584.318 462.652 584.847 460.969 585.747 459.553C588.073 455.889 591.374 454.594 595.434 453.594Z"
     id="path68" />
  <path
     fill="#F9F0A4"
     d="M544.298 368.615C547.546 368.383 550.621 368.981 553.59 370.316C560.897 373.602 566.816 380.259 569.668 387.697C571.778 393.202 572.53 399.798 569.937 405.266C567.651 410.087 563.766 412.387 558.915 414.008C554.203 414.763 550.125 414.401 545.834 412.178C539.532 408.914 534.785 402.886 532.588 396.199C530.593 390.127 530.028 382.737 533.129 376.956C535.623 372.307 539.445 370.1 544.298 368.615Z"
     id="path70" />
  <path
     fill="#F9F0A4"
     d="M791.974 523.209C796.884 522.681 804.88 522.713 809.175 525.303C810.437 526.064 811.491 527.204 811.751 528.703C812.294 531.827 810.093 535.116 808.148 537.334C797.692 549.254 779.175 553.224 764.123 554.307C759.571 554.555 753.714 554.501 749.585 552.411C746.245 550.72 745.316 548.545 744.194 545.112C745.003 542.44 746.026 540.113 747.827 537.944C757.248 526.597 778.341 524.441 791.974 523.209Z"
     id="path72" />
  <path
     fill="#F9F0A4"
     d="M520.714 276.05C522.501 276.042 524.129 276.143 525.792 276.866C529.918 278.656 532.518 282.27 534.071 286.371C537.633 295.78 536.866 307.038 532.682 316.104C529.301 323.43 524.338 328.84 516.641 331.629C513.893 332.045 511.409 332.079 508.82 330.918C505.145 329.269 502.927 326.102 501.693 322.359C498.419 312.433 501.073 299.481 505.774 290.421C509.068 284.073 513.703 278.3 520.714 276.05Z"
     id="path74" />
  <path
     fill="#F9F0A4"
     d="M667.102 466.609C674.827 466.143 681.379 466.846 688.271 470.638C693.832 473.698 698.766 478.624 700.389 484.913Q700.595 485.689 700.719 486.482Q700.844 487.274 700.887 488.076Q700.929 488.877 700.889 489.679Q700.849 490.48 700.727 491.274Q700.604 492.067 700.401 492.843Q700.198 493.62 699.916 494.371Q699.634 495.122 699.276 495.841Q698.919 496.559 698.489 497.237C694.571 503.412 687.599 505.875 680.839 507.414C673.007 507.816 666.216 507.244 659.264 503.286C653.889 500.226 649.357 495.435 647.778 489.332C646.687 485.118 647.223 480.737 649.544 477.028C653.452 470.779 660.324 468.273 667.102 466.609Z"
     id="path76" />
  <path
     fill="#F9F0A4"
     d="M565.108 309.197C569.351 308.924 573.933 310.062 577.766 311.837C584.283 314.854 590.268 320.634 592.54 327.537Q592.706 328.058 592.844 328.586Q592.983 329.114 593.095 329.649Q593.207 330.184 593.292 330.723Q593.377 331.263 593.434 331.806Q593.491 332.349 593.521 332.895Q593.55 333.44 593.552 333.987Q593.554 334.533 593.528 335.079Q593.502 335.624 593.449 336.168Q593.395 336.712 593.314 337.252Q593.233 337.792 593.125 338.328Q593.016 338.863 592.881 339.392Q592.746 339.921 592.584 340.443Q592.422 340.965 592.233 341.478Q592.045 341.99 591.831 342.493Q591.617 342.996 591.377 343.487Q591.138 343.978 590.874 344.456C586.917 351.787 579.795 356.341 572.038 358.723C565.494 359.456 559.947 358.83 554.464 354.796C548.512 350.416 544.273 343.57 543.165 336.258C542.174 329.724 543.465 322.836 547.622 317.588C552.064 311.979 558.238 309.865 565.108 309.197Z"
     id="path78" />
  <path
     fill="#F9F0A4"
     d="M605.81 394.122C613.374 393.29 621.065 395.259 627.693 398.853C634.794 402.703 641.698 408.679 643.915 416.732C645.285 421.713 644.585 427.272 641.831 431.666C638.216 437.432 632.056 440.215 625.722 441.802C616.44 443.488 607.648 441.573 599.822 436.325C593.206 431.89 587.841 425.22 586.462 417.208C585.59 412.147 586.491 406.903 589.616 402.751C593.525 397.558 599.583 395.12 605.81 394.122Z"
     id="path80" />
  <path
     fill="#F9F0A4"
     d="M745.861 471.2C753.648 470.497 763.303 472.017 769.794 476.585C773.309 479.058 775.887 482.783 776.517 487.077C777.256 492.113 775.421 496.769 772.496 500.793C765.82 509.978 755.926 513.707 745.114 515.443C736.655 515.881 727.519 515.072 720.462 509.873C716.779 507.16 714.163 503.37 713.507 498.793C712.744 493.47 714.818 488.321 718.138 484.232C724.81 476.016 735.623 472.183 745.861 471.2Z"
     id="path82" />
  <path
     fill="#F9F0A4"
     d="M623.981 334.089C631.155 333.48 638.189 333.873 644.826 336.849C652.13 340.123 658.475 345.924 661.253 353.567C663.624 360.09 663.002 367.55 659.998 373.765C655.923 382.197 648.94 386.427 640.433 389.272C632.103 390.565 624.997 390.13 617.453 386.023C610.362 382.163 604.842 375.894 602.729 367.999Q602.554 367.363 602.41 366.719Q602.266 366.076 602.154 365.426Q602.042 364.775 601.963 364.121Q601.883 363.466 601.837 362.808Q601.79 362.15 601.775 361.49Q601.761 360.831 601.78 360.172Q601.798 359.512 601.849 358.855Q601.9 358.197 601.984 357.543Q602.067 356.888 602.183 356.239Q602.299 355.59 602.447 354.947Q602.595 354.304 602.774 353.669Q602.954 353.034 603.165 352.409Q603.375 351.784 603.617 351.17Q603.858 350.557 604.13 349.955Q604.401 349.354 604.702 348.767Q605.003 348.18 605.333 347.609C609.528 340.368 616.063 336.202 623.981 334.089Z"
     id="path84" />
  <path
     fill="#F9F0A4"
     d="M683.803 410.168C683.935 410.143 684.067 410.106 684.201 410.093C693.39 409.197 703.036 411.046 710.656 416.415C716.661 420.647 721.225 426.728 722.383 434.121C723.292 439.928 722.036 445.706 718.485 450.424C713.113 457.563 704.774 460.997 696.207 462.363C687.119 463.643 677.16 461.31 669.609 456.12C663.451 451.888 658.806 445.619 657.621 438.117C656.684 432.19 658.079 426.343 661.666 421.523C666.987 414.373 675.298 411.333 683.803 410.168Z"
     id="path86" />
  <path
     fill="#2b8542"
     d="m 520.46032,661.47634 c -2.85801,-2.19743 -9.10565,-3.6491 -12.56583,-5.05595 -3.96616,-1.61159 -7.80682,-3.45892 -11.63641,-5.36478 -19.89637,-9.90388 -32.70283,-18.77865 -50.08287,-32.42908 -19.96288,17.08956 -38.70822,35.40547 -57.84321,53.39856 l -66.32367,61.60036 -218.94673,202.5179 c -7.037192,6.64724 -14.25113,13.22792 -20.646401,20.50446 4.669765,-2.83673 9.113233,-6.1733 13.67544,-9.19467 l 35.842041,-24.11497 80.86729,-54.67226 214.05072,-143.97073 c 31.25998,-21.00322 62.11671,-42.5673 93.60963,-63.21883 z"
     id="path1011" />
</svg>
