<?xml version="1.0" encoding="UTF-8" standalone="no"?>
<svg
   width="1024"
   height="1024"
   version="1.1"
   id="svg88"
   sodipodi:docname="icon.svg"
   inkscape:version="1.1 (c68e22c387, 2021-05-23)"
   inkscape:export-filename="C:\Projects\yardage-chart\public\icon.png"
   inkscape:export-xdpi="96"
   inkscape:export-ydpi="96"
   xmlns:inkscape="http://www.inkscape.org/namespaces/inkscape"
   xmlns:sodipodi="http://sodipodi.sourceforge.net/DTD/sodipodi-0.dtd"
   xmlns="http://www.w3.org/2000/svg"
   xmlns:svg="http://www.w3.org/2000/svg">
  <defs
     id="defs92" />
  <sodipodi:namedview
     id="namedview90"
     pagecolor="#505050"
     bordercolor="#eeeeee"
     borderopacity="1"
     inkscape:pageshadow="0"
     inkscape:pageopacity="0"
     inkscape:pagecheckerboard="true"
     showgrid="false"
     inkscape:zoom="0.64"
     inkscape:cx="311.71875"
     inkscape:cy="457.03125"
     inkscape:window-width="2560"
     inkscape:window-height="1369"
     inkscape:window-x="1912"
     inkscape:window-y="451"
     inkscape:window-maximized="1"
     inkscape:current-layer="svg88"
     width="1024px" />
  <circle
     style="fill:#ececec;stroke:none"
     id="path221"
     cx="707.8125"
     cy="370.3125"
     r="243.75" />
  <path
     fill="#2b8542"
     d="m 368.322,357.851 c 1.13,4.026 -1.137,13.925 -1.716,18.457 q -1.262,10.184 -1.789,20.432 -0.526,10.248 -0.314,20.507 0.212,10.26 1.161,20.477 0.949,10.218 2.631,20.341 c -10.343,8.877 -20.193,18.36 -30.378,27.422 l -75.365,67.278 c -6.058,5.448 -12.407,10.567 -18.481,15.999 -6.928,6.196 -13.595,12.684 -20.52,18.887 -6.835,6.123 -13.963,11.916 -20.8,18.038 -11.129,9.966 -21.984,20.278 -32.893,30.484 -0.781,0.645 -1.291,1.394 -2.329,1.367 24.614,-32.342 47.206,-66.333 70.662,-99.524 L 313.304,433.7 c 18.086,-25.394 35.814,-51.292 55.018,-75.849 z"
     id="path4" />
  <path
     fill="#2b8542"
     d="m 653.24287,686.8589 c -3.8419,-1.55836 -13.78109,-0.27403 -18.28666,-0.15132 q -10.12079,0.23614 -20.23261,-0.2797 -10.11174,-0.51677 -20.16216,-1.78302 -10.05142,-1.26634 -19.98863,-3.27557 -9.93821,-2.00934 -19.71154,-4.75223 c -9.72478,9.5781 -19.9963,18.59419 -29.88726,27.9931 l -73.40789,69.5255 c -5.93999,5.58452 -11.58544,11.4978 -17.51129,17.10018 -6.7593,6.39001 -13.77974,12.48546 -20.54561,18.87175 -6.67855,6.3032 -13.06173,12.93733 -19.73949,19.24266 -10.87061,10.26349 -22.05415,20.21371 -33.13887,30.22953 -0.70947,0.72584 -1.49458,1.16622 -1.56948,2.22151 34.15415,-21.64426 69.72956,-41.06928 104.60402,-61.45233 l 109.74308,-65.47455 c 26.6957,-15.73691 53.85118,-31.05915 79.83441,-48.01547 z"
     id="path4-2"
     style="stroke-width:1.00271" />
  <path
     fill="#2b8542"
     d="m 378.429,503.445 c 2.045,2.969 3.168,9.284 4.392,12.813 1.402,4.045 3.046,7.977 4.749,11.901 8.85,20.387 17.043,33.64 29.766,51.71 -18.11,19.042 -37.381,36.804 -56.35,54.972 L 296.002,697.853 82.3129,905.911 c -7.0061,6.68 -13.955,13.54 -21.5559,19.546 3.0769,-4.515 6.6413,-8.778 9.8971,-13.176 l 25.956,-34.532 58.8259,-77.898 154.966,-206.23 c 22.609,-30.119 45.757,-59.806 68.027,-90.176 z"
     id="path8" />
  <path
     fill="#c8ad50"
     d="m 463.27,232.488 c 0.053,2.051 -5.305,9.344 -6.76,11.794 -34.583,58.227 -45.653,133.939 -28.9,199.612 11.388,44.643 33.808,82.425 65.705,115.37 16.785,17.337 34.927,32.215 55.723,44.514 q 2.687,1.599 5.408,3.14 2.72,1.54 5.474,3.022 2.753,1.482 5.537,2.904 2.785,1.422 5.599,2.784 2.815,1.362 5.658,2.663 2.843,1.301 5.713,2.541 2.871,1.239 5.767,2.417 2.897,1.177 5.818,2.292 2.921,1.115 5.866,2.167 2.944,1.051 5.911,2.039 2.966,0.988 5.953,1.912 2.987,0.924 5.993,1.784 3.007,0.859 6.031,1.654 3.024,0.794 6.064,1.523 3.041,0.73 6.096,1.393 3.056,0.664 6.125,1.261 3.069,0.598 6.15,1.13 3.081,0.531 6.173,0.996 3.092,0.465 6.193,0.863 3.101,0.399 6.21,0.73 3.109,0.332 6.225,0.596 3.115,0.265 6.235,0.462 3.121,0.197 6.245,0.328 3.124,0.13 6.25,0.193 3.126,0.062 6.252,0.058 3.127,-0.004 6.253,-0.076 3.126,-0.072 6.25,-0.211 3.123,-0.139 6.243,-0.345 3.12,-0.206 6.234,-0.48 3.115,-0.273 6.223,-0.614 3.108,-0.34 6.208,-0.747 3.1,-0.407 6.191,-0.881 c 16.807,-2.422 33.113,-6.553 49.535,-10.77 -12.879,7.253 -25.825,13.984 -39.25,20.173 -6.322,2.603 -13.011,4.487 -19.549,6.476 -23.414,7.123 -46.505,11.727 -70.984,13.066 q -2.727,0.144 -5.456,0.233 -2.73,0.088 -5.46,0.12 -2.731,0.033 -5.462,0.009 -2.73,-0.024 -5.46,-0.104 -2.729,-0.08 -5.457,-0.216 -2.727,-0.137 -5.451,-0.329 -2.724,-0.192 -5.444,-0.44 -2.719,-0.248 -5.433,-0.553 -2.714,-0.304 -5.421,-0.663 -2.707,-0.36 -5.406,-0.775 -2.699,-0.416 -5.389,-0.887 -2.69,-0.47 -5.37,-0.996 -2.679,-0.526 -5.348,-1.107 -2.668,-0.581 -5.324,-1.217 -2.655,-0.636 -5.298,-1.326 -2.642,-0.69 -5.269,-1.435 -2.627,-0.744 -5.239,-1.542 -2.612,-0.798 -5.206,-1.65 -2.595,-0.852 -5.171,-1.757 -2.577,-0.905 -5.134,-1.862 -2.557,-0.958 -5.095,-1.968 -2.537,-1.01 -5.052,-2.072 -2.516,-1.062 -5.01,-2.176 -2.493,-1.114 -4.963,-2.278 -2.47,-1.165 -4.916,-2.38 -2.445,-1.215 -4.865,-2.48 -2.42,-1.265 -4.814,-2.58 -2.393,-1.314 -4.759,-2.678 -2.366,-1.364 -4.704,-2.776 -2.337,-1.412 -4.645,-2.871 -2.308,-1.46 -4.586,-2.967 -2.277,-1.507 -4.523,-3.06 c -9.067,-6.183 -17.964,-12.504 -26.127,-19.861 q -2.273,-2.026 -4.494,-4.108 -2.221,-2.083 -4.39,-4.22 -2.169,-2.136 -4.284,-4.327 -2.115,-2.19 -4.175,-4.432 -2.06,-2.242 -4.063,-4.535 -2.004,-2.293 -3.949,-4.635 -1.946,-2.341 -3.833,-4.731 -1.887,-2.39 -3.713,-4.825 -1.827,-2.436 -3.593,-4.917 -1.765,-2.48 -3.469,-5.004 -1.703,-2.524 -3.343,-5.089 -1.64,-2.565 -3.215,-5.171 -1.576,-2.605 -3.086,-5.249 -1.51,-2.643 -2.954,-5.324 -1.444,-2.68 -2.821,-5.396 -1.377,-2.716 -2.686,-5.465 -1.308,-2.749 -2.548,-5.53 -1.24,-2.78 -2.411,-5.591 -1.17,-2.811 -2.27,-5.65 -1.1,-2.839 -2.129,-5.705 -1.029,-2.865 -1.987,-5.755 -0.957,-2.891 -1.842,-5.804 -0.885,-2.913 -1.698,-5.847 -0.812,-2.935 -1.551,-5.888 -0.739,-2.954 -1.405,-5.925 -0.665,-2.971 -1.256,-5.958 -0.591,-2.987 -1.108,-5.987 -0.516,-3.001 -0.958,-6.013 -0.442,-3.013 -0.809,-6.035 -0.367,-3.023 -0.658,-6.054 -0.291,-3.03 -0.507,-6.067 -0.216,-3.038 -0.356,-6.079 c -3.686,-76.468 23.564,-143.494 74.75,-199.773 z"
     id="path10" />
  <path
     id="path12"
     style="fill:#ffffff"
     d="M 703.82031 122.16016 C 699.81278 122.23403 695.80452 122.41872 691.79883 122.71484 L 690.89844 122.78906 C 674.61544 124.20306 658.22091 126.36056 642.37891 130.47656 C 595.51191 142.65056 550.7588 170.65555 519.4668 207.68555 C 518.12013 209.26088 516.79366 210.85227 515.48633 212.46094 C 514.17899 214.0696 512.89167 215.69527 511.625 217.33594 C 510.35833 218.9766 509.11205 220.63269 507.88672 222.30469 C 506.66139 223.97669 505.45677 225.66323 504.27344 227.36523 C 503.0901 229.06723 501.92906 230.78301 500.78906 232.51367 C 499.6484 234.24434 498.53026 235.98871 497.43359 237.74805 C 496.33693 239.50671 495.26165 241.27912 494.20898 243.06445 C 493.15632 244.85045 492.12647 246.6496 491.11914 248.46094 C 490.11114 250.27227 489.12606 252.09564 488.16406 253.93164 C 487.20206 255.76764 486.26366 257.61528 485.34766 259.47461 C 484.43166 261.33394 483.53926 263.20589 482.66992 265.08789 C 481.80059 266.96922 480.95481 268.86101 480.13281 270.76367 C 479.31015 272.66701 478.51033 274.57929 477.73633 276.50195 C 476.96166 278.42462 476.21233 280.35749 475.48633 282.29883 C 474.76033 284.24016 474.05819 286.1891 473.38086 288.14844 C 472.70353 290.1071 472.05054 292.07545 471.42188 294.05078 C 470.79388 296.02611 470.19066 298.00805 469.61133 299.99805 C 469.03266 301.98871 468.47789 303.98623 467.94922 305.99023 C 467.41989 307.99423 466.91617 310.00482 466.4375 312.02148 C 465.95883 314.03815 465.50484 316.06118 465.07617 318.08984 C 464.64817 320.11784 464.24519 322.1495 463.86719 324.1875 C 463.48985 326.2255 463.13917 328.26779 462.8125 330.31445 C 462.48583 332.36179 462.18354 334.4128 461.9082 336.4668 C 461.63287 338.52146 461.38416 340.57996 461.16016 342.64062 C 460.93616 344.70129 460.73712 346.76279 460.56445 348.82812 C 460.39179 350.89413 460.24567 352.96192 460.125 355.03125 C 460.00367 357.09992 459.90851 359.17019 459.83984 361.24219 C 459.77051 363.31352 459.72698 365.38632 459.70898 367.45898 C 459.69165 369.53232 459.70038 371.60573 459.73438 373.67773 C 459.76904 375.7504 459.82806 377.82124 459.91406 379.89258 C 459.9994 381.96324 460.112 384.03356 460.25 386.10156 C 460.38733 388.17023 460.5509 390.23678 460.74023 392.30078 C 465.60923 446.97078 490.03691 496.60173 527.87891 535.92773 C 534.05191 542.34273 540.25456 548.71392 547.10156 554.41992 C 549.44156 556.35192 551.81532 558.24122 554.22266 560.08789 C 556.62932 561.93522 559.06706 563.73805 561.53906 565.49805 C 564.0104 567.25805 566.51421 568.97515 569.04688 570.64648 C 571.57954 572.31715 574.1398 573.94215 576.73047 575.52148 C 579.32047 577.10148 581.93865 578.63314 584.58398 580.11914 C 587.22932 581.60581 589.90099 583.04617 592.59766 584.4375 C 595.29366 585.82817 598.01315 587.17018 600.75781 588.46484 C 603.50248 589.75884 606.26993 591.00389 609.05859 592.19922 C 611.84726 593.39522 614.65504 594.54139 617.48438 595.63672 C 620.31371 596.73205 623.16263 597.77553 626.0293 598.76953 C 628.89663 599.76353 631.77969 600.70699 634.67969 601.59766 C 637.58035 602.48899 640.49578 603.3279 643.42578 604.11523 C 646.35645 604.90257 649.29986 605.63636 652.25586 606.31836 C 655.21253 607.00103 658.17954 607.63036 661.1582 608.20703 C 664.13754 608.7837 667.12571 609.30734 670.12305 609.77734 C 673.12038 610.24734 676.12601 610.66468 679.13867 611.02734 C 693.94867 612.73334 708.74581 612.80341 723.63281 612.44141 C 739.93881 611.17941 756.33938 609.04661 772.23438 605.09961 C 773.73104 604.72561 775.22356 604.33755 776.71289 603.93555 C 778.20289 603.53288 779.68859 603.11621 781.16992 602.68555 C 782.65126 602.25488 784.1289 601.80894 785.60156 601.34961 C 787.0749 600.89028 788.54381 600.41831 790.00781 599.93164 C 791.47181 599.44431 792.93077 598.94307 794.38477 598.42773 C 795.83877 597.91307 797.28776 597.38318 798.73242 596.83984 C 800.17642 596.29718 801.61549 595.74059 803.04883 595.16992 C 804.48283 594.59992 805.91003 594.01597 807.33203 593.41797 C 808.7547 592.82064 810.17136 592.20932 811.58203 591.58398 C 812.9927 590.95932 814.39692 590.32192 815.79492 589.66992 C 817.19359 589.01859 818.58537 588.35249 819.9707 587.67383 C 821.3567 586.99583 822.73671 586.30428 824.10938 585.59961 C 825.48138 584.89428 826.84641 584.17598 828.20508 583.44531 C 829.56374 582.71465 830.9151 581.97151 832.25977 581.21484 C 833.60443 580.45751 834.94148 579.68825 836.27148 578.90625 C 837.60082 578.12358 838.92361 577.32882 840.23828 576.52148 C 841.55295 575.71348 842.85954 574.89321 844.1582 574.06055 C 845.45687 573.22788 846.74663 572.38272 848.0293 571.52539 C 849.31196 570.66806 850.58752 569.79802 851.85352 568.91602 C 853.11952 568.03468 854.37762 567.14038 855.62695 566.23438 C 856.87562 565.32837 858.11437 564.41176 859.3457 563.48242 C 860.57704 562.55242 861.80034 561.61087 863.01367 560.6582 C 864.22701 559.70487 865.43033 558.73967 866.625 557.76367 C 867.82033 556.78767 869.00564 555.8014 870.18164 554.80273 C 871.35697 553.80407 872.52302 552.79282 873.67969 551.77148 C 874.83635 550.75082 875.98376 549.71911 877.12109 548.67578 C 878.25776 547.63311 879.38529 546.58029 880.50195 545.51562 C 881.61862 544.45096 882.72431 543.37506 883.82031 542.28906 C 884.91631 541.20373 886.00084 540.10862 887.07617 539.00195 C 888.15151 537.89529 889.21748 536.77706 890.27148 535.65039 C 891.32482 534.52306 892.36644 533.3869 893.39844 532.24023 C 894.43044 531.09357 895.45289 529.9362 896.46289 528.76953 C 897.77289 527.24753 899.06394 525.70896 900.33594 524.1543 C 901.60794 522.6003 902.86042 521.03065 904.09375 519.44531 C 905.32642 517.85998 906.53909 516.25986 907.73242 514.64453 C 908.92576 513.02853 910.09929 511.39986 911.25195 509.75586 C 912.40462 508.11119 913.53515 506.45196 914.64648 504.7793 C 915.75848 503.10596 916.85059 501.42004 917.91992 499.7207 C 918.98992 498.0207 920.03779 496.30608 921.06445 494.58008 C 922.09179 492.85408 923.09608 491.1159 924.08008 489.36523 C 925.06408 487.61457 926.0268 485.85279 926.9668 484.07812 C 927.9068 482.30346 928.8247 480.51675 929.7207 478.71875 C 930.6167 476.92142 931.49113 475.11426 932.3418 473.29492 C 933.19313 471.47626 934.02084 469.64664 934.82617 467.80664 C 935.63151 465.96664 936.41449 464.11715 937.17383 462.25781 C 937.93383 460.39915 938.67015 458.53034 939.38281 456.65234 C 940.09615 454.77501 940.78517 452.88881 941.45117 450.99414 C 942.11784 449.09947 942.76024 447.19582 943.37891 445.28516 C 943.99824 443.37449 944.59273 441.45658 945.16406 439.53125 C 945.7354 437.60592 946.28331 435.67499 946.80664 433.73633 C 947.32997 431.79699 947.82935 429.85172 948.30469 427.90039 C 948.78002 425.94906 949.23154 423.99196 949.6582 422.0293 C 950.0842 420.0673 950.48528 418.09962 950.86328 416.12695 C 951.24061 414.15429 951.59516 412.17665 951.92383 410.19531 C 952.25249 408.21398 952.5566 406.2289 952.83594 404.24023 C 953.11527 402.2509 953.36961 400.26029 953.59961 398.26562 C 953.82894 396.27029 954.03289 394.27215 954.21289 392.27148 C 954.39356 390.27148 954.54969 388.26963 954.67969 386.26562 C 954.81035 384.26163 954.91543 382.25538 954.99609 380.24805 C 955.07676 378.24138 955.13144 376.23456 955.16211 374.22656 C 955.19278 372.21856 955.20031 370.20917 955.18164 368.20117 C 955.16231 366.19251 955.11749 364.18507 955.04883 362.17773 C 954.97949 360.17107 954.88624 358.16549 954.76758 356.16016 C 954.64891 354.15549 954.5046 352.15172 954.33594 350.15039 C 954.1606 348.15906 953.96095 346.17026 953.73828 344.18359 C 953.51561 342.19693 953.26871 340.21376 952.99805 338.23242 C 952.72738 336.25176 952.43323 334.27411 952.11523 332.30078 C 951.79723 330.32678 951.45713 328.35791 951.0918 326.39258 C 950.72713 324.42658 950.33845 322.46577 949.92578 320.50977 C 949.51378 318.55377 949.07652 316.60225 948.61719 314.65625 C 948.15785 312.71025 947.67721 310.76994 947.17188 308.83594 C 946.66588 306.90194 946.13598 304.97407 945.58398 303.05273 C 945.03198 301.13073 944.45737 299.21593 943.85938 297.30859 C 943.26137 295.40059 942.63943 293.50009 941.99609 291.60742 C 941.35209 289.71476 940.68671 287.82979 939.99805 285.95312 C 939.30938 284.07646 938.59857 282.20961 937.86523 280.34961 C 937.13123 278.49028 936.37566 276.63887 935.59766 274.79688 C 934.81966 272.95554 934.01927 271.12345 933.19727 269.30078 C 932.37527 267.47878 931.53006 265.66723 930.66406 263.86523 C 929.79873 262.06323 928.91257 260.27157 928.00391 258.49023 C 927.09524 256.70957 926.16551 254.94031 925.21484 253.18164 C 924.26351 251.42364 923.29149 249.67674 922.29883 247.94141 C 921.30549 246.20607 920.29181 244.48215 919.25781 242.77148 C 918.22315 241.06082 917.16842 239.36307 916.09375 237.67773 C 915.01842 235.99173 913.92393 234.31949 912.80859 232.66016 C 911.69326 231.00149 910.55701 229.35661 909.40234 227.72461 C 908.24768 226.09261 907.07419 224.47314 905.88086 222.86914 C 904.68686 221.26514 903.47352 219.67623 902.24219 218.10156 C 901.01019 216.5269 899.76085 214.96849 898.49219 213.42383 C 897.22285 211.87916 895.93491 210.34927 894.62891 208.83594 C 893.32291 207.32194 891.99825 205.8238 890.65625 204.3418 C 889.31492 202.8598 887.95546 201.39465 886.57812 199.94531 C 885.20146 198.49598 883.80782 197.06248 882.39648 195.64648 C 880.98515 194.23048 879.55666 192.83251 878.11133 191.45117 C 876.66666 190.06984 875.20652 188.70604 873.72852 187.35938 C 872.25052 186.01271 870.75543 184.68371 869.24609 183.37305 C 823.78297 144.62992 763.93332 121.05202 703.82031 122.16016 z M 634.7207 167.35938 C 632.6377 170.13538 630.68116 172.89191 628.91016 175.87891 C 623.27816 176.44691 617.77561 177.00378 612.22461 178.17578 L 605.84375 180.08398 C 611.93975 172.09898 619.1055 169.06997 628.8125 167.66797 C 630.7065 167.38897 632.7977 167.45637 634.7207 167.35938 z M 744.42969 176.99414 C 746.45654 177.00313 748.49219 177.18266 750.44531 177.58203 C 756.01631 178.72203 759.19847 181.67961 762.23047 186.22461 L 754.14648 183.34961 C 746.58248 181.38761 739.49391 181.65948 731.87891 183.14648 C 734.38191 179.36748 736.4735 178.26934 740.8125 177.15234 C 742.00087 177.04434 743.21357 176.98874 744.42969 176.99414 z M 664.36914 185.16016 C 665.98548 185.1528 667.62036 185.24269 669.22461 185.27344 C 666.25061 189.97744 664.10384 194.05764 662.58984 199.43164 C 655.39684 199.41364 648.55078 199.72653 641.42578 200.89453 L 634.1875 202.23047 C 635.6245 199.59247 637.04786 196.99531 639.00586 194.69531 C 645.34486 187.24731 653.61072 185.92608 662.76172 185.20508 C 663.29497 185.17508 663.83036 185.16261 664.36914 185.16016 z M 555.8418 186.38867 L 556.51562 186.62695 L 556.66211 187.61719 C 553.21011 193.28719 546.92597 197.46792 540.91797 200.04492 L 540.35742 199.41406 C 542.30242 195.60706 552.0508 188.91467 555.8418 186.38867 z M 815.23438 203.13477 C 816.02937 203.15577 816.81347 203.18186 817.60547 203.25586 C 823.81747 203.83186 828.74677 207.37883 832.63477 212.04883 L 832.43359 212.38281 L 830.96289 211.52539 C 823.26289 207.26939 819.60058 208.39361 811.64258 206.72461 L 811.55078 205.88281 C 812.74678 204.40681 813.39237 203.68877 815.23438 203.13477 z M 572.79688 203.20898 L 577.74219 203.27344 C 574.64219 210.37244 572.26244 217.2287 570.77344 224.8457 C 564.27744 222.9367 558.77841 223.08684 552.44141 225.33984 L 547.43555 227.92383 C 550.03355 221.28283 552.49348 214.77711 554.02148 207.78711 C 560.17648 205.49511 566.19588 203.59198 572.79688 203.20898 z M 697.46094 213.17969 C 699.64872 213.15807 701.98383 213.36167 704.04883 213.91992 C 709.81683 215.48092 712.45659 219.8825 715.30859 224.6875 C 707.82859 223.7275 700.90686 223.27364 693.38086 224.05664 C 687.95486 224.01864 682.17172 226.13602 677.13672 227.91602 C 678.17972 224.82902 679.202 221.98684 681.375 219.46484 C 685.334 214.86984 690.7982 213.72313 696.5332 213.20312 C 696.83858 213.19125 697.1484 213.18278 697.46094 213.17969 z M 608.08594 225.66797 C 608.64281 225.68359 609.19988 225.73119 609.79688 225.80469 C 610.56488 228.76569 609.50553 232.46869 609.51953 235.55469 C 609.54553 241.08369 610.6345 246.6205 612.0625 251.9375 C 602.1685 248.3275 593.04005 248.5352 583.12305 251.9082 L 577.32617 254.66406 C 579.52117 247.20906 580.96314 239.64908 578.36914 232.08008 C 587.72414 228.84008 596.40705 226.24166 606.37305 225.72266 C 606.97255 225.66966 607.52906 225.65234 608.08594 225.66797 z M 767.37695 231.57617 C 777.55495 231.55217 784.49348 236.64216 791.27148 243.53516 C 785.54348 241.03416 780.06097 239.21058 773.91797 238.01758 C 763.70897 237.45958 757.00608 239.49806 748.58008 245.28906 C 749.43108 243.31406 750.31584 241.3065 751.58984 239.5625 C 755.34084 234.4275 760.21077 232.60072 766.25977 231.63672 C 766.63077 231.60972 767.00395 231.57717 767.37695 231.57617 z M 513.75586 232.19336 C 512.34386 235.14236 509.97591 240.44161 511.50391 243.72461 C 512.18391 245.18761 513.28931 246.0093 514.82031 246.4043 C 520.91031 247.9713 528.42795 243.29383 533.50195 240.42383 C 530.80295 245.30983 528.36047 250.0837 527.23047 255.5957 C 526.17947 260.7247 526.07792 266.67444 529.16992 271.14844 C 531.58092 274.63644 535.45445 276.44992 539.56445 277.04492 C 550.42045 278.61792 559.17653 273.30958 567.51953 267.14258 C 565.52053 275.25558 565.77736 283.77147 570.19336 291.10547 C 574.12536 297.63447 581.07502 302.17403 588.41602 303.95703 C 596.54502 305.93203 605.6218 304.54103 612.7168 300.08203 C 613.1308 299.8167 613.53879 299.54119 613.93945 299.25586 C 614.34012 298.97119 614.73247 298.67576 615.11914 298.37109 C 615.50514 298.06709 615.88453 297.75431 616.25586 297.43164 C 616.62719 297.10897 616.99104 296.7775 617.3457 296.4375 C 617.70104 296.09683 618.04677 295.74796 618.38477 295.39062 C 618.72277 295.03329 619.05109 294.66826 619.37109 294.29492 C 619.69109 293.92159 620.00269 293.54034 620.30469 293.15234 C 620.60602 292.76368 620.89897 292.36946 621.18164 291.9668 C 621.46364 291.56413 621.73538 291.15361 621.99805 290.73828 C 622.26071 290.32228 622.51386 289.90066 622.75586 289.47266 C 622.99786 289.04399 623.22855 288.61121 623.44922 288.17188 C 623.66989 287.73254 623.87879 287.28722 624.07812 286.83789 C 624.27746 286.38789 624.46591 285.93328 624.64258 285.47461 C 624.81991 285.01594 624.98596 284.55327 625.14062 284.08594 C 625.29462 283.61927 625.43831 283.14978 625.57031 282.67578 C 625.70165 282.20245 625.82102 281.72414 625.92969 281.24414 C 627.90769 272.39614 625.64636 265.80222 620.94336 258.32422 C 633.32636 254.11222 646.23183 251.99942 659.29883 252.60742 C 660.58883 261.27142 662.66923 267.30805 667.74023 274.49805 C 657.86923 272.78005 646.62983 273.85033 637.92383 279.11133 C 630.82583 283.40033 625.41633 290.61672 623.61133 298.76172 C 622.01033 305.99372 623.67148 313.38064 627.64648 319.55664 C 632.83048 327.61064 641.0212 332.56002 650.2832 334.54102 C 650.9632 334.68235 651.64536 334.80673 652.33203 334.91406 C 653.01803 335.0214 653.70777 335.11221 654.39844 335.18555 C 655.0891 335.25888 655.78061 335.31418 656.47461 335.35352 C 657.16794 335.39218 657.86197 335.41459 658.55664 335.41992 C 659.25131 335.42459 659.94663 335.41281 660.64062 335.38281 C 661.33463 335.35348 662.02742 335.30619 662.71875 335.24219 C 663.41075 335.17819 664.09911 335.09605 664.78711 334.99805 C 665.47444 334.90005 666.1598 334.78563 666.8418 334.6543 C 667.5238 334.5223 668.20229 334.37432 668.87695 334.20898 C 669.55162 334.04298 670.22139 333.86011 670.88672 333.66211 C 671.55272 333.46344 672.21252 333.24891 672.86719 333.01758 C 673.52252 332.78624 674.17179 332.53872 674.81445 332.27539 C 675.45712 332.01206 676.09332 331.73283 676.72266 331.4375 C 677.35132 331.14283 677.97389 330.83315 678.58789 330.50781 C 679.20122 330.18181 679.80568 329.84166 680.40234 329.48633 C 680.99901 329.13099 681.5854 328.76162 682.16406 328.37695 C 689.09906 323.75195 694.45328 316.44111 695.98828 308.16211 C 697.60728 299.42311 694.28188 292.52872 689.42188 285.63672 C 699.73587 282.18572 708.22766 276.80847 719.59766 277.23047 C 730.96466 277.65147 738.79536 284.20623 746.19336 292.11523 C 739.29036 290.97823 732.12489 290.67053 725.21289 291.89453 C 716.13989 293.50153 707.15867 297.83206 701.88867 305.66406 C 697.74367 311.82306 695.89831 319.59773 697.44531 326.92773 C 699.79231 338.04873 708.34683 344.34372 717.29883 350.13672 C 713.36483 349.76372 709.43733 349.43328 705.48633 349.73828 C 695.35433 350.52028 685.05587 354.80327 678.42188 362.69727 C 673.82687 368.16427 671.49305 375.07975 672.24805 382.21875 C 673.09905 390.26475 677.78719 397.37733 684.11719 402.23633 C 693.47819 409.42333 706.08031 411.41105 717.57031 409.87305 C 727.29931 408.57105 736.13731 403.88594 742.07031 395.96094 C 746.53931 389.99194 747.93166 382.50666 746.84766 375.22266 C 745.59766 366.82166 740.95991 360.6622 734.25391 355.7832 C 739.05191 355.6272 743.44978 355.30403 748.05078 353.83203 C 758.00078 350.64903 764.73741 344.74175 769.44141 335.46875 C 776.98441 346.66075 790.55427 348.56842 802.44727 352.60742 C 792.72227 352.10042 784.68669 350.36659 775.05469 353.30859 C 765.67969 356.17159 757.74197 362.30745 753.16797 371.06445 C 749.83997 377.43645 748.72527 385.83184 751.07227 392.71484 C 753.45527 399.69984 758.9512 404.75067 765.5332 407.76367 C 776.6932 412.87267 791.24627 414.90944 802.94727 410.52344 C 813.67627 406.50044 819.60216 399.37838 824.28516 389.23438 C 828.57216 395.85838 832.90941 398.75453 840.31641 401.14453 C 835.59941 402.07453 830.84825 403.23561 826.40625 405.09961 C 815.21025 409.79761 807.29123 418.03764 802.74023 429.18164 C 800.79523 423.40464 797.67645 419.09411 792.18945 416.16211 C 782.88345 411.18911 765.20927 411.3717 755.19727 414.4707 C 745.67527 417.4177 736.5627 423.25795 731.9707 432.37695 C 728.9887 438.29995 727.99962 445.75208 730.26562 452.08008 C 732.35362 457.91008 737.03734 462.06025 742.52734 464.65625 C 754.12534 470.14025 769.38056 468.52786 781.10156 464.25586 C 791.50256 460.46486 798.02813 454.32117 802.70312 444.32617 C 803.42413 446.08417 804.14697 447.83531 805.16797 449.44531 C 809.70297 456.59331 817.05952 459.30436 824.85352 461.19336 C 821.43052 461.97136 817.95281 462.41998 814.50781 463.08398 C 802.87681 465.32798 789.5293 471.38922 782.7793 481.57422 C 779.7713 486.11222 777.88356 491.80109 779.10156 497.24609 C 780.26056 502.43209 783.92292 506.93139 788.41992 509.65039 C 795.44292 513.89739 804.13653 513.82563 811.89453 512.01562 C 825.03953 508.94763 837.84781 502.23486 845.13281 490.63086 C 846.01081 493.88386 846.98775 497.16394 849.46875 499.58594 C 852.81575 502.85294 857.35447 502.98869 861.73047 503.05469 C 875.58247 500.65369 889.00186 492.68542 897.25586 481.10742 C 898.93986 478.74442 902.75089 469.52955 903.83789 468.68555 C 904.70389 473.56255 901.91527 481.80769 900.19727 486.42969 C 900.11427 486.65269 900.04498 486.88152 899.95898 487.10352 C 898.40898 491.13552 890.60973 497.20078 887.30273 500.55078 C 882.33573 505.58478 878.44419 511.27103 873.99219 516.70703 C 875.07619 513.63503 876.48186 509.70272 874.63086 506.63672 C 873.66486 505.03672 871.86852 504.296 870.10352 504 C 867.61952 503.584 864.81472 504.27808 862.38672 504.83008 C 857.54072 506.32408 852.77203 508.03684 848.08203 509.96484 C 835.51703 515.19184 818.39633 524.03666 813.11133 537.59766 C 812.30933 539.65366 811.85095 542.08834 812.87695 544.15234 C 813.95495 546.31834 816.16148 547.68106 818.39648 548.41406 C 832.32948 552.98906 855.77509 538.28333 865.12109 528.73633 C 866.56709 527.25933 871.44328 519.89872 871.98828 519.63672 C 872.08128 521.45172 871.83152 523.91366 872.47852 525.59766 C 872.90052 526.69566 873.73519 527.50375 874.86719 527.84375 C 879.42819 529.21575 885.58 525.15334 889.5 523.02734 C 880.728 530.96834 835.66523 560.30814 833.99023 565.74414 C 833.42423 567.57814 834.65483 568.49767 835.29883 570.13867 C 819.92983 577.60567 804.13192 585.38808 787.91992 590.83008 C 741.01392 606.57408 686.712 607.18019 639.5 592.36719 C 574.007 571.81719 526.02866 532.38828 494.34766 471.36328 C 465.56766 415.92528 464.5153 349.43591 483.1543 290.62891 C 484.1403 291.90891 483.55258 293.00491 485.26758 293.87891 C 486.48758 294.49991 487.75903 294.28239 488.95703 293.77539 C 495.37903 291.05339 500.20009 279.20355 502.37109 273.06055 C 503.94709 268.59955 506.83728 260.88509 504.48828 256.37109 C 503.45428 254.38309 502.01186 253.97587 500.00586 253.29688 C 504.20986 247.00487 508.34786 237.17336 513.75586 232.19336 z M 520.71484 276.05078 C 513.70384 278.30078 509.06744 284.07387 505.77344 290.42188 C 501.07244 299.48188 498.41936 312.43338 501.69336 322.35938 C 502.92736 326.10238 505.14531 329.26897 508.82031 330.91797 C 511.40931 332.07897 513.89262 332.04491 516.64062 331.62891 C 524.33763 328.83991 529.30064 323.42952 532.68164 316.10352 C 536.86564 307.03752 537.63231 295.78009 534.07031 286.37109 C 532.51731 282.27009 529.91897 278.65523 525.79297 276.86523 C 524.12997 276.14223 522.50184 276.04278 520.71484 276.05078 z M 793.71484 289.89453 C 798.13989 289.89125 802.37369 290.55975 806.61719 292.40625 C 797.08619 292.60625 787.9475 294.69919 780.3125 300.61719 C 776.9345 303.56019 774.57295 307.44739 772.12695 311.15039 C 772.65695 306.58339 773.44588 301.9467 775.92188 297.9707 C 779.07388 292.9127 783.72775 291.33952 789.21875 290.10352 C 790.7435 289.97152 792.23983 289.89562 793.71484 289.89453 z M 566.71289 309.16016 C 566.17405 309.1517 565.6378 309.16314 565.10742 309.19727 C 558.23742 309.86527 552.06309 311.97889 547.62109 317.58789 C 543.46409 322.83589 542.17306 329.72381 543.16406 336.25781 C 544.27206 343.56981 548.51284 350.41688 554.46484 354.79688 C 559.94784 358.83088 565.49311 359.45566 572.03711 358.72266 C 579.79411 356.34066 586.91605 351.78608 590.87305 344.45508 C 591.04905 344.13641 591.21762 343.81366 591.37695 343.48633 C 591.53695 343.15899 591.68741 342.82752 591.83008 342.49219 C 591.97274 342.15685 592.10709 341.81985 592.23242 341.47852 C 592.35842 341.13652 592.47598 340.79136 592.58398 340.44336 C 592.69198 340.09536 592.79086 339.74524 592.88086 339.39258 C 592.97086 339.03991 593.05233 338.68479 593.125 338.32812 C 593.197 337.97079 593.26045 337.61195 593.31445 337.25195 C 593.36845 336.89195 593.41322 336.53064 593.44922 336.16797 C 593.48455 335.8053 593.51001 335.44146 593.52734 335.07812 C 593.54468 334.71413 593.55407 334.35033 593.55273 333.98633 C 593.5514 333.62166 593.54082 333.25786 593.52148 332.89453 C 593.50148 332.53053 593.47159 332.16864 593.43359 331.80664 C 593.39559 331.44464 593.34964 331.08266 593.29297 330.72266 C 593.2363 330.36332 593.17037 330.0051 593.0957 329.64844 C 593.02104 329.29177 592.93642 328.93794 592.84375 328.58594 C 592.75175 328.23394 592.64973 327.88444 592.53906 327.53711 C 590.26706 320.63411 584.28263 314.85489 577.76562 311.83789 C 574.41175 310.28477 570.4848 309.21936 566.71289 309.16016 z M 629.33203 333.8457 C 627.56005 333.848 625.77397 333.93759 623.98047 334.08984 C 616.06247 336.20284 609.52703 340.36838 605.33203 347.60938 C 605.11203 347.99004 604.90184 348.37624 604.70117 348.76758 C 604.50051 349.15891 604.31153 349.55441 604.13086 349.95508 C 603.94953 350.35641 603.77785 350.76126 603.61719 351.16992 C 603.45585 351.57926 603.30406 351.99154 603.16406 352.4082 C 603.0234 352.82487 602.89344 353.24659 602.77344 353.66992 C 602.6541 354.09326 602.54593 354.5186 602.44727 354.94727 C 602.3486 355.37593 602.26093 355.80561 602.18359 356.23828 C 602.10626 356.67095 602.03971 357.1063 601.98438 357.54297 C 601.92838 357.97897 601.88361 358.4168 601.84961 358.85547 C 601.81561 359.29347 601.7913 359.73187 601.7793 360.17188 C 601.76663 360.61121 601.76606 361.0509 601.77539 361.49023 C 601.78539 361.93023 601.80656 362.36993 601.83789 362.80859 C 601.86856 363.24726 601.90956 363.68443 601.96289 364.12109 C 602.01556 364.55709 602.07963 364.99178 602.1543 365.42578 C 602.22896 365.85911 602.31416 366.29008 602.41016 366.71875 C 602.50616 367.14808 602.61185 367.57405 602.72852 367.99805 C 604.84152 375.89305 610.36212 382.16344 617.45312 386.02344 C 624.99712 390.13044 632.10359 390.56448 640.43359 389.27148 C 648.94059 386.42648 655.92305 382.19763 659.99805 373.76562 C 663.00205 367.55062 663.62491 360.08941 661.25391 353.56641 C 658.47591 345.92341 652.13017 340.12361 644.82617 336.84961 C 639.84842 334.61761 634.64798 333.83881 629.33203 333.8457 z M 848.09375 336.70703 C 851.66675 336.79603 854.68206 337.45408 858.03906 338.58008 C 854.38906 339.13408 850.61027 339.59206 847.07227 340.66406 C 837.42027 343.58706 831.13547 349.40659 826.48047 358.18359 C 825.52747 360.35359 824.67678 362.55991 823.30078 364.50391 C 822.92678 363.53991 822.70166 362.55144 822.59766 361.52344 C 822.08366 356.43844 825.30166 349.03583 828.59766 345.17383 C 833.71766 339.17283 840.55775 337.31903 848.09375 336.70703 z M 499.80078 342.89453 C 499.60105 342.89381 499.39936 342.89639 499.19336 342.90039 C 495.07336 345.54439 493.25409 348.45634 492.24609 353.27734 C 490.43009 361.95834 492.68605 374.8688 497.74805 382.2168 C 499.04705 384.1028 501.28756 386.54669 503.72656 386.80469 C 504.57156 386.89369 505.33628 386.58645 506.11328 386.31445 C 510.57328 383.36445 512.6218 379.79864 513.7168 374.55664 C 515.3728 366.62864 513.96167 355.81212 509.51367 348.95312 C 507.63967 346.06512 505.02784 343.75469 501.58984 343.05469 C 500.98009 342.93019 500.39998 342.89669 499.80078 342.89453 z M 545.50781 368.56641 C 545.10709 368.56965 544.70483 368.58623 544.29883 368.61523 C 539.44583 370.10023 535.62291 372.30608 533.12891 376.95508 C 530.02791 382.73608 530.59289 390.12722 532.58789 396.19922 C 534.78489 402.88622 539.53198 408.91373 545.83398 412.17773 C 550.12498 414.40073 554.20206 414.76281 558.91406 414.00781 C 563.76506 412.38681 567.6515 410.08663 569.9375 405.26562 C 572.5305 399.79762 571.77797 393.20227 569.66797 387.69727 C 566.81597 380.25927 560.89684 373.60241 553.58984 370.31641 C 550.99197 369.14828 548.31288 368.5437 545.50781 368.56641 z M 889.44531 385.5293 C 890.34386 385.50745 891.20372 385.57014 892.13672 385.65039 C 891.89072 386.29239 889.01781 387.55652 888.25781 387.97852 C 885.44881 389.54052 882.82814 391.29462 880.49414 393.51562 C 875.64514 398.12763 872.83086 403.79395 870.25586 409.87695 C 869.79186 411.12695 869.31273 411.99541 868.55273 413.06641 C 869.56073 407.13541 870.79241 401.20623 873.94141 395.99023 C 877.47841 390.13123 882.0133 387.15803 888.5293 385.58203 C 888.84155 385.55378 889.1458 385.53658 889.44531 385.5293 z M 608.65039 393.93945 C 607.70325 393.95822 606.75605 394.01709 605.81055 394.12109 C 599.58355 395.11909 593.52423 397.55895 589.61523 402.75195 C 586.49023 406.90395 585.59089 412.14603 586.46289 417.20703 C 587.84189 425.21903 593.20627 431.88922 599.82227 436.32422 C 607.64827 441.57222 616.44066 443.48873 625.72266 441.80273 C 632.05666 440.21573 638.21508 437.43202 641.83008 431.66602 C 644.58408 427.27202 645.28406 421.71342 643.91406 416.73242 C 641.69706 408.67942 634.79436 402.70352 627.69336 398.85352 C 621.89386 395.70877 615.2804 393.80809 608.65039 393.93945 z M 492.31836 399.8457 C 490.24936 401.7797 489.76203 403.21287 489.70703 406.04688 C 489.53003 414.99488 494.76998 427.28919 501.08398 433.61719 C 502.10098 434.63619 503.20992 435.45266 504.41992 436.22266 C 506.53992 433.99366 506.83223 432.09592 506.74023 429.04492 C 506.48623 420.71692 501.8503 407.07181 495.5293 401.38281 C 494.6273 400.57081 493.45436 400.2077 492.31836 399.8457 z M 689.40234 409.88281 C 687.66364 409.8527 685.92411 409.92575 684.20117 410.09375 C 684.06717 410.10675 683.93473 410.14297 683.80273 410.16797 C 675.29773 411.33297 666.98702 414.37344 661.66602 421.52344 C 658.07902 426.34344 656.68409 432.19019 657.62109 438.11719 C 658.80609 445.61919 663.45137 451.88714 669.60938 456.11914 C 677.16037 461.30914 687.11903 463.64328 696.20703 462.36328 C 704.77403 460.99728 713.11238 457.56283 718.48438 450.42383 C 722.03537 445.70583 723.29181 439.92809 722.38281 434.12109 C 721.22481 426.72809 716.66125 420.64606 710.65625 416.41406 C 704.465 412.05175 696.93672 410.01332 689.40234 409.88281 z M 922.86328 422.31641 L 923.40625 422.7207 C 923.80625 423.6677 923.90369 423.92875 923.55469 424.96875 C 922.80369 427.20675 920.96886 429.65556 919.75586 431.72656 C 916.79186 436.78756 914.50708 441.6185 913.08008 447.3125 C 912.95208 447.4895 913.05772 447.37627 912.63672 447.44727 C 912.41672 445.74427 912.47767 444.17566 912.63867 442.47266 C 913.33167 435.12366 917.16528 426.99441 922.86328 422.31641 z M 536.44531 430.51953 C 534.20131 431.65453 532.7952 432.74097 531.9082 435.16797 C 530.3822 439.33997 532.09528 444.08628 533.98828 447.86328 C 537.46428 454.79528 543.87858 461.11606 551.39258 463.41406 C 553.94358 464.19306 556.38867 464.1213 559.01367 463.9043 C 561.48067 462.3233 563.18352 460.77069 563.85352 457.80469 C 564.82352 453.50869 562.5562 449.06553 560.1582 445.64453 C 555.6642 439.23453 547.21166 431.88612 539.22266 430.70312 C 538.30566 430.56813 537.37031 430.53853 536.44531 430.51953 z M 870.24805 437.36719 C 873.10305 441.62519 876.00047 443.36428 880.73047 444.98828 C 867.15547 450.12028 855.9625 459.03572 849.4375 472.13672 L 849.04492 473.08984 L 848.59375 473.0957 C 847.32975 467.1717 845.25611 465.50523 840.53711 461.99023 C 854.67311 457.32523 863.36705 450.69519 870.24805 437.36719 z M 598.23242 453.51367 C 597.30215 453.51039 596.36934 453.53725 595.43359 453.59375 C 591.37359 454.59375 588.07209 455.88873 585.74609 459.55273 C 584.84609 460.96873 584.31758 462.65267 583.89258 464.26367 C 585.40258 472.42767 589.53319 477.61262 596.24219 482.26562 C 604.65619 488.10163 614.72373 490.90848 624.92773 489.52148 C 628.99173 488.26548 633.07984 486.28044 635.08984 482.27344 C 636.30784 479.84544 636.14944 477.18492 635.27344 474.66992 C 632.53444 466.81492 624.40789 460.94969 617.08789 457.67969 C 611.10639 455.00831 604.74431 453.53665 598.23242 453.51367 z M 498.38086 453.95703 C 496.82686 456.71203 497.37641 459.87327 498.19141 462.82227 C 500.90541 472.63227 509.14092 481.76711 517.79492 486.78711 C 519.27992 480.23911 512.61316 469.89647 509.28516 464.60547 C 506.60616 460.34447 503.24186 455.79303 498.38086 453.95703 z M 671.33398 466.48242 C 669.95805 466.47495 668.55 466.522 667.10156 466.60938 C 660.32356 468.27338 653.45292 470.77834 649.54492 477.02734 C 647.22392 480.73634 646.68634 485.11803 647.77734 489.33203 C 649.35634 495.43503 653.88867 500.22516 659.26367 503.28516 C 666.21567 507.24316 673.00784 507.81606 680.83984 507.41406 C 687.59984 505.87506 694.57028 503.41133 698.48828 497.23633 C 698.77495 496.78433 699.03739 496.32046 699.27539 495.8418 C 699.51406 495.36246 699.72802 494.87176 699.91602 494.37109 C 700.10402 493.87043 700.26506 493.36175 700.40039 492.84375 C 700.53572 492.32642 700.64456 491.8021 700.72656 491.27344 C 700.8079 490.7441 700.86201 490.21369 700.88867 489.67969 C 700.91534 489.14502 700.91472 488.61017 700.88672 488.07617 C 700.85805 487.54151 700.80208 487.01042 700.71875 486.48242 C 700.63608 485.95376 700.52601 485.42944 700.38867 484.91211 C 698.76567 478.62311 693.83248 473.69867 688.27148 470.63867 C 682.67173 467.55767 677.29637 466.51482 671.33398 466.48242 z M 929.91992 469.9668 L 930.35547 470.55469 C 929.50547 477.02569 917.77712 485.76095 913.57812 491.37695 L 913.25 490.93945 C 914.951 483.47345 923.68792 474.1668 929.91992 469.9668 z M 748.85938 471.04297 C 747.83745 471.05976 746.8347 471.11134 745.86133 471.19922 C 735.62333 472.18222 724.81067 476.01642 718.13867 484.23242 C 714.81867 488.32142 712.74481 493.46997 713.50781 498.79297 C 714.16381 503.36997 716.77989 507.16005 720.46289 509.87305 C 727.51989 515.07205 736.65428 515.88136 745.11328 515.44336 C 755.92528 513.70736 765.82009 509.97797 772.49609 500.79297 C 775.42109 496.76897 777.25658 492.11217 776.51758 487.07617 C 775.88758 482.78217 773.30992 479.05894 769.79492 476.58594 C 764.1153 472.58894 756.01283 470.9254 748.85938 471.04297 z M 546.64258 489.51758 C 545.44658 490.24658 544.65105 490.76261 544.24805 492.22461 C 543.57805 494.64861 545.02453 497.25825 546.39453 499.15625 C 551.50053 506.23225 561.83739 514.79583 570.77539 515.92383 C 571.91539 516.06783 573.05813 516.02937 574.20312 515.98438 C 575.36712 515.18438 576.47566 514.4983 576.84766 513.0293 C 577.47966 510.5333 576.41205 507.95755 574.99805 505.93555 C 569.58305 498.19755 560.09619 491.25055 550.61719 489.81055 C 549.27019 489.60655 548.00258 489.49358 546.64258 489.51758 z M 613.32617 512.64062 C 610.95117 513.07663 608.30958 513.7725 607.01758 516.0625 C 606.41758 517.1265 606.6203 518.24694 607.0293 519.33594 C 609.3103 525.41294 620.11109 530.71581 625.87109 532.75781 C 631.73509 534.83681 637.83948 535.63948 644.02148 534.77148 C 646.22348 533.76548 648.37842 532.64044 649.35742 530.27344 C 649.40876 530.1521 649.45419 530.02834 649.49219 529.90234 C 649.52952 529.77634 649.56127 529.65015 649.58594 529.52148 C 649.6106 529.39215 649.62801 529.26219 649.63867 529.13086 C 649.64867 528.99953 649.65177 528.86766 649.64844 528.73633 C 649.6451 528.60499 649.63452 528.47442 649.61719 528.34375 C 649.60052 528.21375 649.57626 528.08308 649.54492 527.95508 C 649.51426 527.82708 649.47631 527.70213 649.43164 527.57812 C 649.38764 527.45479 649.33663 527.33351 649.2793 527.21484 C 646.2763 520.94184 632.79342 515.91486 626.48242 514.38086 C 622.21342 513.34286 617.72717 512.64662 613.32617 512.64062 z M 796.12891 522.94922 C 794.6217 522.98 793.20211 523.07698 791.97461 523.20898 C 778.34161 524.44098 757.24717 526.59636 747.82617 537.94336 C 746.02517 540.11236 745.00236 542.43933 744.19336 545.11133 C 745.31536 548.54433 746.24594 550.71916 749.58594 552.41016 C 753.71494 554.50016 759.57105 554.55464 764.12305 554.30664 C 779.17505 553.22364 797.69244 549.25398 808.14844 537.33398 C 810.09344 535.11598 812.29495 531.82713 811.75195 528.70312 C 811.49195 527.20413 810.43778 526.06373 809.17578 525.30273 C 805.95453 523.36023 800.65052 522.85688 796.12891 522.94922 z M 700.51172 527.5918 C 699.49368 527.60377 698.50034 527.64489 697.54297 527.71289 C 690.32697 528.25589 680.42834 529.08542 675.27734 534.85742 C 673.84334 536.46542 673.0203 538.42552 673.2793 540.60352 C 673.5923 543.22652 675.53203 545.45008 677.58203 546.95508 C 684.29803 551.88608 694.68389 552.66416 702.71289 552.41016 C 709.75289 551.63516 719.22958 550.46145 724.14258 544.68945 C 725.49758 543.09745 726.30559 541.18236 726.05859 539.06836 C 725.74559 536.39036 723.75991 534.2562 721.62891 532.7832 C 715.97203 528.8737 707.63802 527.50799 700.51172 527.5918 z M 557.4082 531.80273 C 557.09938 531.80456 556.78708 531.81531 556.4707 531.83594 C 556.1227 534.18394 556.46358 535.10938 557.89258 536.98438 C 563.03558 543.73338 578.64186 553.21303 587.13086 554.08203 C 587.90286 554.16203 588.67131 554.15806 589.44531 554.16406 C 590.03931 552.57006 590.30484 551.52752 589.58984 549.85352 C 586.67584 543.02852 570.42625 535.33098 563.65625 532.95898 C 561.565 532.22661 559.56999 531.78996 557.4082 531.80273 z M 826.14453 555.9375 C 825.20441 555.95531 824.24912 556.08984 823.32812 556.18359 C 813.06813 557.33759 777.12131 568.15 771.07031 575.5 C 770.29231 576.445 770.32027 576.70605 770.32227 577.87305 C 771.83927 579.60405 774.38125 579.74209 776.53125 579.99609 C 791.03525 579.14209 817.28666 570.94764 827.34766 560.18164 C 828.22766 559.24064 828.99131 558.30256 829.07031 556.97656 C 828.33231 556.14256 828.24712 556.06284 827.07812 555.96484 C 826.76963 555.93909 826.45791 555.93156 826.14453 555.9375 z M 627.91016 558.08398 C 627.59955 558.08481 627.29427 558.08847 626.99805 558.09766 C 625.67405 559.09066 625.38948 559.53038 624.89648 561.10938 C 625.29848 563.06837 626.12548 563.95341 627.77148 565.06641 C 635.71148 570.43741 651.36814 574.58741 660.86914 572.69141 C 661.56647 572.54874 662.25865 572.38327 662.94531 572.19727 C 664.33931 571.21827 664.914 570.98539 665.625 569.40039 C 664.976 567.47939 663.97816 566.74953 662.16016 565.89453 C 653.8415 561.98466 637.53887 558.05836 627.91016 558.08398 z M 746.91406 566.25195 C 744.40319 566.2737 741.88325 566.48327 739.53125 566.69727 C 732.82125 567.50227 714.28081 570.24373 709.88281 575.80273 C 709.00381 576.91273 709.04927 577.26837 709.07227 578.60938 C 710.49627 580.93238 712.87769 581.80522 715.42969 582.44922 C 720.10369 583.62722 725.03536 583.55236 729.81836 583.44336 C 737.47936 582.47036 753.52909 579.80289 758.87109 573.46289 C 759.74609 572.42489 759.81142 571.8432 759.73242 570.5332 C 758.41542 568.4662 756.61023 567.48459 754.24023 566.93359 C 751.92673 566.39659 749.42494 566.2302 746.91406 566.25195 z " />
  <path
     fill="#2b8542"
     d="m 520.46032,661.47634 c -2.85801,-2.19743 -9.10565,-3.6491 -12.56583,-5.05595 -3.96616,-1.61159 -7.80682,-3.45892 -11.63641,-5.36478 -19.89637,-9.90388 -32.70283,-18.77865 -50.08287,-32.42908 -19.96288,17.08956 -38.70822,35.40547 -57.84321,53.39856 l -66.32367,61.60036 -218.94673,202.5179 c -7.037192,6.64724 -14.25113,13.22792 -20.646401,20.50446 4.669765,-2.83673 9.113233,-6.1733 13.67544,-9.19467 l 35.842041,-24.11497 80.86729,-54.67226 214.05072,-143.97073 c 31.25998,-21.00322 62.11671,-42.5673 93.60963,-63.21883 z"
     id="path1011" />
</svg>
